<?xml version="1.0" encoding="utf-8"?>
<!DOCTYPE svg PUBLIC "-//W3C//DTD SVG 1.1//EN" "http://www.w3.org/Graphics/SVG/1.1/DTD/svg11.dtd">
<svg version="1.1" xmlns="http://www.w3.org/2000/svg" xmlns:xlink="http://www.w3.org/1999/xlink" width="32" height="32" viewBox="0 0 32 32">
    <path d="M31.981 16l-3.544-4.081 0.492-5.403-5.243-1.196-2.748-4.669-4.939 2.151-4.941-2.151-2.745 4.669-5.244 1.197 0.491 5.401-3.541 4.081 3.541 4.081-0.491 5.404 5.245 1.195 2.748 4.669 4.937-2.148 4.939 2.147 2.745-4.667 5.247-1.195-0.492-5.407 3.543-4.080zM22.025 24.377l-2.151 3.659-3.875-1.683-3.873 1.684-2.153-3.659-4.115-0.941 0.385-4.235-2.78-3.203 2.78-3.199-0.385-4.237 4.117-0.941 2.148-3.656 3.876 1.683 3.873-1.684 2.151 3.656 4.115 0.941-0.385 4.235 2.78 3.203-2.78 3.201 0.385 4.237-4.113 0.939zM16 7.495c-4.645 0-8.425 3.816-8.425 8.505 0 4.691 3.78 8.505 8.425 8.505s8.425-3.815 8.425-8.505c0-4.689-3.78-8.505-8.425-8.505zM16 23.196c-3.931 0-7.129-3.228-7.129-7.196s3.199-7.196 7.129-7.196c3.929 0 7.129 3.228 7.129 7.196s-3.2 7.196-7.129 7.196z" fill="#89410D"></path>
</svg>
