<?xml version="1.0" encoding="utf-8"?>
<!DOCTYPE svg PUBLIC "-//W3C//DTD SVG 1.1//EN" "http://www.w3.org/Graphics/SVG/1.1/DTD/svg11.dtd">
<svg version="1.1" xmlns="http://www.w3.org/2000/svg" xmlns:xlink="http://www.w3.org/1999/xlink" width="32" height="32" viewBox="0 0 32 32">
    <path d="M26.562 8.021l-10.496 9.213v11.939l5.841 2.827h-13.689l5.842-2.826v-11.94l-10.622-9.213h16.202l3.243-5.619 0.872 0.503-2.953 5.115h5.76zM24.111 8.965l-3.863 0.015-1.19 2.062h2.745l2.308-2.077zM16.066 15.069c0.591 0 1.069-0.479 1.069-1.070s-0.479-1.070-1.069-1.070-1.070 0.479-1.070 1.070c0 0.592 0.48 1.070 1.070 1.070zM5.89 8.965l2.327 2.077h9.679l1.188-2.057-13.194-0.020z" fill="#622898"></path>
</svg>